<svg width="50" height="54" viewBox="0 0 50 54" fill="none" xmlns="http://www.w3.org/2000/svg">
<rect width="50" height="50" transform="translate(0 4)" fill="white"/>
<path d="M14.9906 29.8967C17.099 33.5867 18.0156 36.4667 18.0156 39.9767C18.0156 40.5167 18.3823 40.8767 18.9323 40.8767H29.2906C29.8406 40.8767 30.2073 40.5167 30.2073 39.9767C30.2073 36.3767 31.124 33.4967 33.2323 29.8967C34.149 28.2767 34.699 26.5667 34.699 24.7667C34.699 19.0067 29.9323 14.4167 24.1573 14.4167C20.3073 14.4167 16.9156 16.3067 14.9906 19.5467C13.0656 22.7867 13.0656 26.6567 14.9906 29.8967Z" fill="white" stroke="#0400D5" stroke-width="3" stroke-linecap="round" stroke-linejoin="round"/>
<path d="M18.75 46.0847L29.1667 46.0847" stroke="#0400D5" stroke-width="3" stroke-linecap="round" stroke-linejoin="round"/>
<path d="M20.8335 51.2932L27.0835 51.2932" stroke="#0400D5" stroke-width="3" stroke-linecap="round" stroke-linejoin="round"/>
<path d="M25 8.16675V1.91675" stroke="#0400D5" stroke-width="3" stroke-linecap="round" stroke-linejoin="round"/>
<path d="M37.5 14.4167L41.6667 10.2501" stroke="#0400D5" stroke-width="3" stroke-linecap="round" stroke-linejoin="round"/>
<path d="M10.4165 14.4167L6.24984 10.2501" stroke="#0400D5" stroke-width="3" stroke-linecap="round" stroke-linejoin="round"/>
<path d="M17.7134 8.99268L14.5835 4.0001" stroke="#0400D5" stroke-width="3" stroke-linecap="round" stroke-linejoin="round"/>
<path d="M31.25 8.5564L34.9864 3.99988" stroke="#0400D5" stroke-width="3" stroke-linecap="round" stroke-linejoin="round"/>
</svg>
