<svg width="54" height="50" viewBox="0 0 54 50" fill="none" xmlns="http://www.w3.org/2000/svg">
<rect width="50" height="50" transform="translate(3)" fill="white"/>
<rect x="10.3784" y="16.8447" width="39.5833" height="25" rx="4.16667" transform="rotate(-0.354636 10.3784 16.8447)" stroke="#0400D5" stroke-width="3.125" stroke-linecap="round" stroke-linejoin="round"/>
<rect x="0.644043" y="12.9827" width="45.8333" height="29.1667" rx="4.16667" transform="rotate(-15 0.644043 12.9827)" fill="white" stroke="#0400D5" stroke-width="3.125" stroke-linecap="round" stroke-linejoin="round"/>
<ellipse cx="26.5537" cy="21.1376" rx="6.25" ry="8.33333" transform="rotate(-15 26.5537 21.1376)" stroke="#0400D5" stroke-width="3.125" stroke-linecap="round" stroke-linejoin="round"/>
<path d="M9.77078 14.8508C10.3664 17.0736 9.04728 19.3583 6.82451 19.9539" stroke="#0400D5" stroke-width="3.125" stroke-linecap="round" stroke-linejoin="round"/>
<path d="M43.3371 27.4253C42.7415 25.2026 44.0606 22.9178 46.2834 22.3222" stroke="#0400D5" stroke-width="3.125" stroke-linecap="round" stroke-linejoin="round"/>
<path d="M15.1643 34.9741C14.5687 32.7513 12.284 31.4322 10.0612 32.0278" stroke="#0400D5" stroke-width="3.125" stroke-linecap="round" stroke-linejoin="round"/>
<path d="M37.9436 7.30156C38.5392 9.52433 40.8239 10.8434 43.0467 10.2478" stroke="#0400D5" stroke-width="3.125" stroke-linecap="round" stroke-linejoin="round"/>
</svg>
