<svg width="70" height="70" viewBox="0 0 70 70" fill="none" xmlns="http://www.w3.org/2000/svg">
<path fill-rule="evenodd" clip-rule="evenodd" d="M47.83 18.0887H57.852C58.4323 18.057 58.998 18.2779 59.4032 18.6944C59.8085 19.111 60.0137 19.6825 59.966 20.2617V47.9747C59.9673 48.5676 59.7324 49.1366 59.3132 49.5559C58.8939 49.9751 58.3249 50.2101 57.732 50.2087H42.151C42.391 52.0173 43.323 53.6623 44.751 54.7977H47.83C48.6176 54.7808 49.3528 55.1914 49.7515 55.8708C50.1503 56.5502 50.1503 57.3922 49.7515 58.0717C49.3528 58.7511 48.6176 59.1616 47.83 59.1447H23.136C22.3484 59.1616 21.6132 58.7511 21.2145 58.0717C20.8157 57.3922 20.8157 56.5502 21.2145 55.8708C21.6132 55.1914 22.3484 54.7808 23.136 54.7977H26.211C27.6736 53.6922 28.6145 52.0316 28.811 50.2087H13.234C12.6411 50.2101 12.0721 49.9751 11.6529 49.5559C11.2336 49.1366 10.9987 48.5676 11 47.9747V20.3217C10.9989 19.729 11.234 19.1603 11.6532 18.7412C12.0724 18.3222 12.6413 18.0874 13.234 18.0887H29.051V16.6397H22.591C22.3966 16.6468 22.2081 16.5727 22.0706 16.4352C21.933 16.2976 21.8589 16.1091 21.866 15.9147V14.2237C20.8677 13.8709 20.2688 12.8501 20.4478 11.8065C20.6268 10.7629 21.5317 10 22.5905 10C23.6494 10 24.5542 10.7629 24.7332 11.8065C24.9122 12.8501 24.3133 13.8709 23.315 14.2237V15.1897H29.775C30.1734 15.1946 30.4951 15.5163 30.5 15.9147V18.0887H34.851V14.2237C33.8527 13.8709 33.2538 12.8501 33.4328 11.8065C33.6118 10.7629 34.5167 10 35.5755 10C36.6344 10 37.5392 10.7629 37.7182 11.8065C37.8972 12.8501 37.2983 13.8709 36.3 14.2237V18.0887H40.645V15.9147C40.6379 15.7204 40.712 15.5318 40.8496 15.3943C40.9871 15.2568 41.1756 15.1827 41.37 15.1897H47.83V14.2237C46.8317 13.8709 46.2328 12.8501 46.4118 11.8065C46.5908 10.7629 47.4957 10 48.5545 10C49.6134 10 50.5182 10.7629 50.6972 11.8065C50.8762 12.8501 50.2773 13.8709 49.279 14.2237V15.8537C49.2861 16.0481 49.212 16.2366 49.0744 16.3742C48.9369 16.5117 48.7484 16.5858 48.554 16.5787H42.094V18.0277H44.751C45.1407 18.0422 45.4491 18.3623 45.4491 18.7522C45.4491 19.1422 45.1407 19.4622 44.751 19.4767H42.094V20.9257H56.464C56.6584 20.9187 56.8469 20.9928 56.9844 21.1303C57.122 21.2678 57.1961 21.4564 57.189 21.6507V46.5867C57.1961 46.7811 57.122 46.9696 56.9844 47.1072C56.8469 47.2447 56.6584 47.3188 56.464 47.3117H14.623C14.4286 47.3188 14.2401 47.2447 14.1026 47.1072C13.965 46.9696 13.8909 46.7811 13.898 46.5867V43.7487C13.8881 43.4835 14.024 43.234 14.2523 43.0985C14.4805 42.9629 14.7645 42.9629 14.9928 43.0985C15.221 43.234 15.3569 43.4835 15.347 43.7487V45.8617H55.8V22.3747H42.09V26.2397L45.169 27.6887C45.4255 27.8108 45.5897 28.0687 45.592 28.3527V40.0647C45.5897 40.3488 45.4255 40.6066 45.169 40.7287L43.72 41.4537C43.4799 41.5805 43.1893 41.5635 42.9656 41.4097C42.7419 41.2558 42.622 40.9905 42.6544 40.721C42.6869 40.4514 42.8662 40.2221 43.12 40.1257L44.207 39.6427V29.4977L36.36 33.2427V43.3867L40.526 41.3947C40.8867 41.2577 41.2916 41.425 41.4505 41.7766C41.6093 42.1282 41.4672 42.5426 41.126 42.7227L35.873 45.1977C35.6831 45.2878 35.4629 45.2878 35.273 45.1977L25.973 40.7297C25.7165 40.6076 25.5523 40.3498 25.55 40.0657V28.3517C25.5523 28.0677 25.7165 27.8098 25.973 27.6877L29.053 26.2387V22.3747H15.347V40.6087C15.3325 40.9984 15.0124 41.3068 14.6225 41.3068C14.2326 41.3068 13.9125 40.9984 13.898 40.6087V21.6507C13.8909 21.4564 13.965 21.2678 14.1026 21.1303C14.2401 20.9928 14.4286 20.9187 14.623 20.9257H28.992V19.4767H13.234C12.8038 19.4847 12.457 19.8315 12.449 20.2617V47.9747C12.457 48.4049 12.8038 48.7517 13.234 48.7597H57.852C58.2822 48.7517 58.629 48.4049 58.637 47.9747V20.3227C58.629 19.8925 58.2822 19.5457 57.852 19.5377H47.83C47.4403 19.5232 47.1319 19.2032 47.1319 18.8132C47.1319 18.4233 47.4403 18.1032 47.83 18.0887ZM49.0724 11.6523C48.9349 11.5148 48.7464 11.4407 48.552 11.4477L48.554 11.4467C48.3593 11.4393 48.1703 11.5135 48.0325 11.6512C47.8947 11.789 47.8206 11.978 47.828 12.1727C47.8181 12.438 47.954 12.6874 48.1823 12.823C48.4105 12.9585 48.6945 12.9585 48.9228 12.823C49.151 12.6874 49.2869 12.438 49.277 12.1727C49.2841 11.9784 49.21 11.7898 49.0724 11.6523ZM35.571 11.4477C35.7659 11.4395 35.9553 11.513 36.0937 11.6504C36.2321 11.7879 36.3069 11.9768 36.3 12.1717C36.3099 12.437 36.174 12.6864 35.9458 12.822C35.7175 12.9575 35.4335 12.9575 35.2053 12.822C34.977 12.6864 34.8412 12.437 34.851 12.1717C34.844 11.9779 34.9177 11.7898 35.0545 11.6524C35.1914 11.515 35.3792 11.4405 35.573 11.4467L35.571 11.4477ZM23.1104 11.6523C22.9729 11.5148 22.7844 11.4407 22.59 11.4477L22.592 11.4467C22.3973 11.4393 22.2083 11.5135 22.0705 11.6512C21.9327 11.789 21.8586 11.978 21.866 12.1727C21.8805 12.5624 22.2006 12.8708 22.5905 12.8708C22.9804 12.8708 23.3005 12.5624 23.315 12.1727C23.3221 11.9784 23.248 11.7898 23.1104 11.6523ZM30.5 22.3747H34.847V23.4617L30.5 25.5747V22.3747ZM35.572 31.9747L43.179 28.3517L35.572 24.7287L27.965 28.3517L35.572 31.9747ZM27 29.4977L34.849 33.2407V43.3857L27 39.6427V29.4977ZM36.3 23.4617L40.645 25.5737L40.647 22.3747H36.3V23.4617ZM40.645 19.4737V20.9227H36.3V19.4767L40.645 19.4737ZM34.845 20.9227V19.4737L30.5 19.4767V20.9227H34.845ZM48.615 56.9107C48.6221 57.1051 48.548 57.2936 48.4104 57.4312C48.2729 57.5687 48.0844 57.6428 47.89 57.6357H23.2C22.9347 57.6456 22.6853 57.5097 22.5498 57.2815C22.4142 57.0532 22.4142 56.7692 22.5498 56.541C22.6853 56.3128 22.9347 56.1769 23.2 56.1867H47.89C48.288 56.1916 48.6096 56.5127 48.615 56.9107ZM28.328 54.7367H42.815H42.819C41.6763 53.4625 40.9771 51.8525 40.826 50.1477H30.26C30.1144 51.8424 29.4384 53.4482 28.328 54.7367Z" fill="#0400D5"/>
</svg>
