<svg width="27" height="24" viewBox="0 0 27 24" fill="none" xmlns="http://www.w3.org/2000/svg">
<path d="M13.6104 7L13.6104 16" stroke="#A7D500" stroke-width="1.5" stroke-linecap="round" stroke-linejoin="round"/>
<path d="M16.8828 13.7273L14.3172 16.2929C13.9267 16.6834 13.2935 16.6834 12.903 16.2929L10.3374 13.7273" stroke="#A7D500" stroke-width="1.5" stroke-linecap="round" stroke-linejoin="round"/>
<path d="M6.61035 20C3.84893 20 1.61035 17.7614 1.61035 15C1.61035 12.2386 3.84893 10 6.61035 10L6.62675 10C6.88403 6.091 10.1362 3 14.1104 3C17.4612 3 20.2987 5.19741 21.2606 8.22981C23.7719 8.94667 25.6104 11.2586 25.6104 14C25.6104 17.3137 22.9241 20 19.6104 20C14.9262 20 10.9397 20 6.61035 20Z" stroke="#A7D500" stroke-width="1.5" stroke-linecap="round" stroke-linejoin="round"/>
</svg>
