<svg width="50" height="52" viewBox="0 0 50 52" fill="none" xmlns="http://www.w3.org/2000/svg">
<rect width="50" height="50" fill="white"/>
<path d="M25.5297 21.7688C25.1269 23.7581 25.1175 25.7829 25.5016 27.7858C26.2567 31.7212 28.5097 35.3739 31.8455 38.0706C31.9901 38.1875 32.1826 38.2265 32.3613 38.1751C35.4049 37.2994 38.1333 35.704 40.2518 33.5614C42.4416 31.3467 43.9184 28.5991 44.5226 25.6157C44.9256 23.626 44.9351 21.6018 44.5509 19.599C43.7957 15.6631 41.5427 12.0105 38.207 9.31369C38.0624 9.19682 37.8698 9.15786 37.6911 9.2092C34.6476 10.0849 31.919 11.6803 29.8007 13.823C27.6108 16.0378 26.1341 18.7853 25.5297 21.7688Z" stroke="#0400D5" stroke-width="3" stroke-linecap="round" stroke-linejoin="round"/>
<path d="M8.10223 24.3154C8.41658 27.0765 9.25838 29.7179 10.6036 32.1648C13.2471 36.9725 17.7224 40.7799 23.205 42.8856C23.4426 42.9769 23.7098 42.9465 23.921 42.8042C27.516 40.3797 30.397 37.1508 32.2527 33.4663C34.1709 29.6579 34.9356 25.456 34.4642 21.3152C34.1499 18.5535 33.3085 15.9128 31.9632 13.4661C29.3195 8.65785 24.8441 4.85042 19.3617 2.74467C19.124 2.65345 18.8566 2.68394 18.6456 2.82617C15.0506 5.25062 12.1694 8.47965 10.3139 12.164C8.3956 15.9727 7.63098 20.1743 8.10223 24.3154Z" fill="white" stroke="#0400D5" stroke-width="3" stroke-linecap="round" stroke-linejoin="round"/>
<path d="M24.714 50.3518L20.6724 22.7603" stroke="#0400D5" stroke-width="3" stroke-linecap="round" stroke-linejoin="round"/>
<path d="M14.3735 25.9375L22.1272 32.6931L27.6175 23.9975" stroke="#0400D5" stroke-width="3" stroke-linecap="round" stroke-linejoin="round"/>
</svg>
