<svg width="131" height="24" viewBox="0 0 131 24" fill="none" xmlns="http://www.w3.org/2000/svg">
<path d="M12.9639 7L12.9639 16" stroke="#A7D500" stroke-width="1.5" stroke-linecap="round" stroke-linejoin="round"/>
<path d="M16.2363 13.7273L13.6707 16.2929C13.2802 16.6834 12.647 16.6834 12.2565 16.2929L9.69087 13.7273" stroke="#A7D500" stroke-width="1.5" stroke-linecap="round" stroke-linejoin="round"/>
<path d="M5.96338 20C3.20196 20 0.963379 17.7614 0.963379 15C0.963379 12.2386 3.20196 10 5.96338 10L5.97978 10C6.23706 6.091 9.48925 3 13.4634 3C16.8142 3 19.6517 5.19741 20.6137 8.22981C23.1249 8.94667 24.9634 11.2586 24.9634 14C24.9634 17.3137 22.2771 20 18.9634 20C14.2793 20 10.2928 20 5.96338 20Z" stroke="#A7D500" stroke-width="1.5" stroke-linecap="round" stroke-linejoin="round"/>
<path d="M47.1788 10.144H53.1468C53.1362 11.9147 52.5975 13.376 51.5308 14.528C50.4642 15.6693 49.0935 16.24 47.4188 16.24C45.7655 16.24 44.3841 15.6907 43.2748 14.592C42.1761 13.4827 41.6268 12.0907 41.6268 10.416C41.6268 8.73067 42.1708 7.33333 43.2588 6.224C44.3468 5.11467 45.7175 4.56 47.3708 4.56C48.7682 4.56 49.9895 4.96 51.0348 5.76C52.0801 6.54933 52.7308 7.57333 52.9868 8.832H50.4908C50.3308 8.42667 50.1015 8.08 49.8028 7.792C49.5041 7.49333 49.1468 7.264 48.7308 7.104C48.3255 6.944 47.8881 6.864 47.4188 6.864C46.4268 6.864 45.6215 7.19467 45.0028 7.856C44.3841 8.51733 44.0748 9.37067 44.0748 10.416C44.0748 11.0987 44.2135 11.7067 44.4908 12.24C44.7681 12.7733 45.1575 13.1893 45.6588 13.488C46.1708 13.7867 46.7575 13.936 47.4188 13.936C47.8988 13.936 48.3522 13.856 48.7788 13.696C49.2055 13.536 49.5681 13.312 49.8668 13.024C50.1762 12.7253 50.4002 12.3893 50.5388 12.016H47.1788V10.144ZM63.2408 11.648C63.2408 11.872 63.2248 12.1013 63.1928 12.336H56.6648C56.7608 12.9227 56.9901 13.376 57.3528 13.696C57.7261 14.0053 58.2008 14.16 58.7768 14.16C59.1715 14.16 59.5288 14.0747 59.8488 13.904C60.1688 13.7227 60.4195 13.4773 60.6008 13.168H63.0648C62.7448 14.1067 62.2008 14.8533 61.4328 15.408C60.6648 15.9627 59.7795 16.24 58.7768 16.24C57.4968 16.24 56.4301 15.8027 55.5768 14.928C54.7235 14.0533 54.2968 12.9707 54.2968 11.68C54.2968 11.168 54.3661 10.6773 54.5048 10.208C54.6541 9.73867 54.8621 9.31733 55.1288 8.944C55.4061 8.57067 55.7261 8.25067 56.0888 7.984C56.4515 7.70667 56.8621 7.49333 57.3208 7.344C57.7795 7.19467 58.2648 7.12 58.7768 7.12C59.6408 7.12 60.4142 7.32267 61.0968 7.728C61.7902 8.13333 62.3182 8.68267 62.6808 9.376C63.0542 10.0693 63.2408 10.8267 63.2408 11.648ZM58.7768 9.104C58.2541 9.104 57.8115 9.248 57.4488 9.536C57.0968 9.824 56.8568 10.224 56.7288 10.736H60.9048C60.7982 10.384 60.6435 10.0907 60.4408 9.856C60.2381 9.61067 59.9928 9.424 59.7048 9.296C59.4275 9.168 59.1181 9.104 58.7768 9.104ZM69.0027 13.92H70.0587V16H68.4107C67.7814 16 67.232 15.8773 66.7627 15.632C66.304 15.3867 65.952 15.0347 65.7067 14.576C65.4614 14.1067 65.3387 13.552 65.3387 12.912V9.232H63.7707V8.736L67.1947 5.104H67.6267V7.36H70.0107V9.232H67.6747V12.608C67.6747 13.024 67.7867 13.3493 68.0107 13.584C68.2454 13.808 68.576 13.92 69.0027 13.92ZM79.4402 13.92H80.4962V16H78.8482C78.2189 16 77.6695 15.8773 77.2002 15.632C76.7415 15.3867 76.3895 15.0347 76.1442 14.576C75.8989 14.1067 75.7762 13.552 75.7762 12.912V9.232H74.2082V8.736L77.6322 5.104H78.0642V7.36H80.4482V9.232H78.1122V12.608C78.1122 13.024 78.2242 13.3493 78.4482 13.584C78.6829 13.808 79.0135 13.92 79.4402 13.92ZM87.0352 7.152C88.0165 7.152 88.7899 7.47733 89.3552 8.128C89.9205 8.77867 90.2032 9.65333 90.2032 10.752V16H87.8672V11.136C87.8672 10.4853 87.7445 10 87.4992 9.68C87.2645 9.36 86.8859 9.2 86.3632 9.2C85.7765 9.2 85.3072 9.40267 84.9552 9.808C84.6032 10.2133 84.4272 10.7627 84.4272 11.456V16H82.0912V4.24H84.4272V8.16C85.1312 7.488 86.0005 7.152 87.0352 7.152ZM100.725 11.648C100.725 11.872 100.709 12.1013 100.677 12.336H94.1492C94.2452 12.9227 94.4745 13.376 94.8372 13.696C95.2105 14.0053 95.6852 14.16 96.2612 14.16C96.6559 14.16 97.0132 14.0747 97.3332 13.904C97.6532 13.7227 97.9039 13.4773 98.0852 13.168H100.549C100.229 14.1067 99.6852 14.8533 98.9172 15.408C98.1492 15.9627 97.2639 16.24 96.2612 16.24C94.9812 16.24 93.9145 15.8027 93.0612 14.928C92.2079 14.0533 91.7812 12.9707 91.7812 11.68C91.7812 11.168 91.8505 10.6773 91.9892 10.208C92.1385 9.73867 92.3465 9.31733 92.6132 8.944C92.8905 8.57067 93.2105 8.25067 93.5732 7.984C93.9359 7.70667 94.3465 7.49333 94.8052 7.344C95.2639 7.19467 95.7492 7.12 96.2612 7.12C97.1252 7.12 97.8985 7.32267 98.5812 7.728C99.2745 8.13333 99.8025 8.68267 100.165 9.376C100.539 10.0693 100.725 10.8267 100.725 11.648ZM96.2612 9.104C95.7385 9.104 95.2959 9.248 94.9332 9.536C94.5812 9.824 94.3412 10.224 94.2132 10.736H98.3892C98.2825 10.384 98.1279 10.0907 97.9252 9.856C97.7225 9.61067 97.4772 9.424 97.1892 9.296C96.9119 9.168 96.6025 9.104 96.2612 9.104ZM111.512 7.472V9.408H109.336V16H107V9.408H105.496V7.472H107.016V6.688C107.016 5.84533 107.251 5.184 107.72 4.704C108.19 4.224 108.867 3.984 109.752 3.984H111.496V5.824H110.216C109.587 5.824 109.272 6.13333 109.272 6.752V7.472H111.512ZM112.857 6.208V4.032H115.193V6.208H112.857ZM112.857 16V7.36H115.193V16H112.857ZM117.435 16V4.24H119.771V16H117.435ZM130.397 11.648C130.397 11.872 130.381 12.1013 130.349 12.336H123.821C123.917 12.9227 124.146 13.376 124.509 13.696C124.882 14.0053 125.357 14.16 125.933 14.16C126.328 14.16 126.685 14.0747 127.005 13.904C127.325 13.7227 127.576 13.4773 127.757 13.168H130.221C129.901 14.1067 129.357 14.8533 128.589 15.408C127.821 15.9627 126.936 16.24 125.933 16.24C124.653 16.24 123.586 15.8027 122.733 14.928C121.88 14.0533 121.453 12.9707 121.453 11.68C121.453 11.168 121.522 10.6773 121.661 10.208C121.81 9.73867 122.018 9.31733 122.285 8.944C122.562 8.57067 122.882 8.25067 123.245 7.984C123.608 7.70667 124.018 7.49333 124.477 7.344C124.936 7.19467 125.421 7.12 125.933 7.12C126.797 7.12 127.57 7.32267 128.253 7.728C128.946 8.13333 129.474 8.68267 129.837 9.376C130.21 10.0693 130.397 10.8267 130.397 11.648ZM125.933 9.104C125.41 9.104 124.968 9.248 124.605 9.536C124.253 9.824 124.013 10.224 123.885 10.736H128.061C127.954 10.384 127.8 10.0907 127.597 9.856C127.394 9.61067 127.149 9.424 126.861 9.296C126.584 9.168 126.274 9.104 125.933 9.104Z" fill="#A7D500"/>
</svg>
