<svg width="50" height="50" viewBox="0 0 50 50" fill="none" xmlns="http://www.w3.org/2000/svg">
<rect width="50" height="50" fill="white"/>
<rect x="10.4165" y="4.16675" width="6.25" height="20.8333" rx="1" stroke="#0400D5" stroke-width="3" stroke-linecap="round"/>
<path d="M6.25 23.3311C6.25 23.0658 6.35536 22.8115 6.54289 22.6239L24.2929 4.87395C24.6834 4.48342 25.3166 4.48342 25.7071 4.87395L43.4571 22.624C43.6446 22.8115 43.75 23.0658 43.75 23.3311V44.8335C43.75 45.3858 43.3023 45.8335 42.75 45.8335H7.25C6.69771 45.8335 6.25 45.3858 6.25 44.8335V23.3311Z" fill="white"/>
<path d="M6.54289 22.6239L7.60355 23.6846L7.60355 23.6846L6.54289 22.6239ZM24.2929 4.87395L25.3536 5.93461L25.3536 5.93461L24.2929 4.87395ZM25.7071 4.87395L26.7678 3.81329L26.7678 3.81329L25.7071 4.87395ZM43.4571 22.624L44.5178 21.5633L44.5178 21.5633L43.4571 22.624ZM7.75 23.3311C7.75 23.4637 7.69732 23.5908 7.60355 23.6846L5.48223 21.5633C5.01339 22.0321 4.75 22.668 4.75 23.3311H7.75ZM7.60355 23.6846L25.3536 5.93461L23.2322 3.81329L5.48223 21.5633L7.60355 23.6846ZM25.3536 5.93461C25.1583 6.12987 24.8417 6.12987 24.6464 5.93461L26.7678 3.81329C25.7915 2.83698 24.2085 2.83698 23.2322 3.81329L25.3536 5.93461ZM24.6464 5.93461L42.3964 23.6846L44.5178 21.5633L26.7678 3.81329L24.6464 5.93461ZM42.3964 23.6846C42.3027 23.5908 42.25 23.4637 42.25 23.3311H45.25C45.25 22.668 44.9866 22.0321 44.5178 21.5633L42.3964 23.6846ZM42.25 23.3311V44.8335H45.25V23.3311H42.25ZM42.25 44.8335C42.25 44.5574 42.4739 44.3335 42.75 44.3335V47.3335C44.1307 47.3335 45.25 46.2142 45.25 44.8335H42.25ZM42.75 44.3335H7.25V47.3335H42.75V44.3335ZM7.25 44.3335C7.52614 44.3335 7.75 44.5574 7.75 44.8335H4.75C4.75 46.2142 5.86928 47.3335 7.25 47.3335V44.3335ZM7.75 44.8335V23.3311H4.75V44.8335H7.75Z" fill="#0400D5"/>
<path fill-rule="evenodd" clip-rule="evenodd" d="M30.8375 20.2842V20.2842C31.0872 20.0344 31.0535 19.5602 30.7128 19.4668C28.3484 18.8189 25.7125 19.4238 23.8549 21.2813C21.9542 23.182 21.3651 25.8976 22.0875 28.3035C22.2032 28.6886 22.1233 29.1139 21.8389 29.3983L14.8818 36.3554C14.1007 37.1365 14.1007 38.4028 14.8818 39.1839L16.0432 40.3453C16.8243 41.1263 18.0906 41.1263 18.8716 40.3453L25.8925 33.3244C26.1702 33.0467 26.5834 32.9635 26.9622 33.0679C29.329 33.72 31.9695 33.116 33.8296 31.256C35.687 29.3986 36.2918 26.763 35.6442 24.3987C35.5509 24.0581 35.077 24.0243 34.8273 24.274V24.274L31.8349 27.2664C30.7332 28.3682 28.9468 28.3682 27.8451 27.2664C26.7433 26.1646 26.7433 24.3783 27.8451 23.2765L30.8375 20.2842Z" fill="white"/>
<path d="M27.8451 27.2664L28.9057 26.2057L28.9057 26.2057L27.8451 27.2664ZM26.9622 33.0679L27.3606 31.6218L26.9622 33.0679ZM22.0875 28.3035L20.6509 28.7349L22.0875 28.3035ZM35.6442 24.3987L34.1975 24.795L35.6442 24.3987ZM30.7128 19.4668L31.1092 18.0202L30.7128 19.4668ZM24.9156 22.342C26.3767 20.8808 28.4505 20.4022 30.3164 20.9135L31.1092 18.0202C28.2463 17.2357 25.0482 17.9667 22.7942 20.2207L24.9156 22.342ZM23.5242 27.8721C22.9541 25.9737 23.4205 23.837 24.9156 22.342L22.7942 20.2207C20.4879 22.527 19.7761 25.8215 20.6509 28.7349L23.5242 27.8721ZM15.9424 37.4161L22.8996 30.4589L20.7783 28.3376L13.8211 35.2948L15.9424 37.4161ZM15.9424 38.1232C15.7472 37.9279 15.7472 37.6114 15.9424 37.4161L13.8211 35.2948C12.4543 36.6616 12.4543 38.8777 13.8211 40.2445L15.9424 38.1232ZM17.1039 39.2846L15.9424 38.1232L13.8211 40.2445L14.9825 41.4059L17.1039 39.2846ZM17.811 39.2846C17.6157 39.4799 17.2991 39.4799 17.1039 39.2846L14.9825 41.4059C16.3494 42.7728 18.5655 42.7728 19.9323 41.4059L17.811 39.2846ZM24.8318 32.2638L17.811 39.2846L19.9323 41.4059L26.9531 34.3851L24.8318 32.2638ZM32.7689 30.1953C31.3058 31.6584 29.2284 32.1364 27.3606 31.6218L26.5637 34.514C29.4296 35.3036 32.6332 34.5736 34.8902 32.3166L32.7689 30.1953ZM34.1975 24.795C34.7086 26.6608 34.2299 28.7343 32.7689 30.1953L34.8902 32.3166C37.144 30.0629 37.8751 26.8651 37.0909 24.0024L34.1975 24.795ZM32.8956 28.3271L35.888 25.3347L33.7667 23.2134L30.7743 26.2057L32.8956 28.3271ZM26.7844 28.3271C28.472 30.0146 31.208 30.0146 32.8956 28.3271L30.7743 26.2057C30.2583 26.7217 29.4217 26.7217 28.9057 26.2057L26.7844 28.3271ZM26.7844 22.2159C25.0969 23.9034 25.0969 26.6395 26.7844 28.3271L28.9057 26.2057C28.3897 25.6898 28.3897 24.8532 28.9057 24.3372L26.7844 22.2159ZM29.7768 19.2235L26.7844 22.2159L28.9057 24.3372L31.8981 21.3448L29.7768 19.2235ZM26.9531 34.3851C26.7967 34.5415 26.6294 34.5321 26.5637 34.514L27.3606 31.6218C26.5375 31.395 25.5438 31.5518 24.8318 32.2638L26.9531 34.3851ZM20.6509 28.7349C20.6312 28.6693 20.6179 28.498 20.7783 28.3376L22.8996 30.4589C23.6286 29.7299 23.7751 28.7078 23.5242 27.8721L20.6509 28.7349ZM37.0909 24.0024C36.8481 23.1159 36.0972 22.7023 35.4772 22.6262C34.8891 22.554 34.2398 22.7402 33.7667 23.2134L35.888 25.3347C35.6645 25.5582 35.377 25.6364 35.1117 25.6038C34.8144 25.5674 34.3471 25.3409 34.1975 24.795L37.0909 24.0024ZM31.8981 21.3448C32.3713 20.8716 32.5575 20.2223 32.4854 19.6342C32.4094 19.0142 31.9958 18.2631 31.1092 18.0202L30.3164 20.9135C29.7705 20.7639 29.5442 20.2966 29.5077 19.9994C29.4752 19.7342 29.5534 19.4469 29.7768 19.2235L31.8981 21.3448Z" fill="#0400D5"/>
</svg>
