<svg width="50" height="50" viewBox="0 0 50 50" fill="none" xmlns="http://www.w3.org/2000/svg">
<rect width="50" height="50" fill="white"/>
<path d="M17.4146 12.5423L17.0349 13.9934C17.4291 14.0965 17.8482 14.0349 18.196 13.8227L17.4146 12.5423ZM12.3018 11.2044L12.6815 9.75329C12.1873 9.62399 11.6614 9.75504 11.2856 10.1011L12.3018 11.2044ZM19.9908 11.2998L20.506 12.7085C20.8882 12.5688 21.1972 12.2797 21.3621 11.9077L19.9908 11.2998ZM22.1328 6.46786L21.9053 4.98522C21.3999 5.06278 20.9688 5.39248 20.7615 5.85995L22.1328 6.46786ZM27.8674 6.46785L29.2387 5.85994C29.0315 5.39246 28.6003 5.06276 28.0949 4.9852L27.8674 6.46785ZM30.0095 11.2998L28.6382 11.9077C28.8031 12.2797 29.1121 12.5687 29.4942 12.7085L30.0095 11.2998ZM32.5856 12.5422L31.8043 13.8227C32.1521 14.0349 32.5712 14.0965 32.9653 13.9934L32.5856 12.5422ZM37.6985 11.2044L38.7147 10.101C38.3389 9.75502 37.813 9.62398 37.3188 9.75328L37.6985 11.2044ZM41.2772 15.6865L42.6074 16.3796C42.8436 15.9263 42.8327 15.3838 42.5784 14.9404L41.2772 15.6865ZM38.8347 20.3745L37.5044 19.6814C37.3164 20.0423 37.283 20.464 37.412 20.85L38.8347 20.3745ZM39.4689 23.1628L37.9806 23.3499C38.0314 23.7543 38.2446 24.1206 38.571 24.3645L39.4689 23.1628ZM43.7039 26.3271L45.2003 26.4317C45.2358 25.9229 45.0104 25.4308 44.6017 25.1255L43.7039 26.3271ZM42.4324 31.9186L42.7199 33.3908C43.221 33.293 43.6379 32.9469 43.8264 32.4724L42.4324 31.9186ZM37.2391 32.9329L36.9516 31.4607C36.5527 31.5386 36.2025 31.7751 35.9812 32.1159L37.2391 32.9329ZM35.4575 35.1645L34.382 34.1189C34.0984 34.4107 33.9454 34.8051 33.9583 35.2118L35.4575 35.1645ZM35.6242 40.4518L36.4752 41.687C36.8953 41.3976 37.1396 40.9144 37.1235 40.4045L35.6242 40.4518ZM30.4597 42.9427L29.488 44.0854C29.8769 44.4162 30.4073 44.5264 30.8958 44.3779L30.4597 42.9427ZM26.4281 39.5143L27.3998 38.3716C27.0903 38.1084 26.6873 37.9821 26.283 38.0214L26.4281 39.5143ZM23.5722 39.5143L23.7173 38.0213C23.3129 37.9821 22.9099 38.1084 22.6004 38.3716L23.5722 39.5143ZM19.5406 42.9427L19.1044 44.3779C19.5929 44.5264 20.1234 44.4162 20.5123 44.0854L19.5406 42.9427ZM14.376 40.4517L12.8768 40.4044C12.8607 40.9144 13.1049 41.3976 13.5251 41.687L14.376 40.4517ZM14.5427 35.1645L16.042 35.2118C16.0548 34.8051 15.9019 34.4106 15.6183 34.1189L14.5427 35.1645ZM12.7612 32.9329L14.0191 32.1159C13.7977 31.7751 13.4476 31.5387 13.0487 31.4607L12.7612 32.9329ZM7.56793 31.9187L6.17389 32.4724C6.36238 32.9469 6.77929 33.293 7.2804 33.3908L7.56793 31.9187ZM6.29639 26.327L5.39858 25.1254C4.98993 25.4307 4.76446 25.9228 4.80004 26.4317L6.29639 26.327ZM10.5314 23.1628L11.4292 24.3645C11.7557 24.1205 11.9689 23.7543 12.0197 23.3499L10.5314 23.1628ZM11.1656 20.3745L12.5883 20.85C12.7172 20.4641 12.6839 20.0423 12.4959 19.6814L11.1656 20.3745ZM8.7231 15.6866L7.42185 14.9404C7.16756 15.3839 7.15662 15.9263 7.39283 16.3797L8.7231 15.6866ZM17.7943 11.0911L12.6815 9.75329L11.9221 12.6556L17.0349 13.9934L17.7943 11.0911ZM19.4755 9.89106C18.4779 10.2559 17.5267 10.7166 16.6333 11.2618L18.196 13.8227C18.9227 13.3792 19.6958 13.0049 20.506 12.7085L19.4755 9.89106ZM20.7615 5.85995L18.6195 10.6919L21.3621 11.9077L23.5041 7.07577L20.7615 5.85995ZM25.0002 4.75C23.9488 4.75 22.9152 4.83025 21.9053 4.98522L22.3604 7.95051C23.2201 7.81857 24.1016 7.75 25.0002 7.75V4.75ZM28.0949 4.9852C27.0851 4.83025 26.0515 4.75 25.0002 4.75V7.75C25.8986 7.75 26.7801 7.81856 27.6399 7.9505L28.0949 4.9852ZM31.3807 10.6919L29.2387 5.85994L26.4961 7.07576L28.6382 11.9077L31.3807 10.6919ZM33.3669 11.2618C32.4735 10.7166 31.5224 10.2559 30.5247 9.89104L29.4942 12.7085C30.3045 13.0049 31.0775 13.3792 31.8043 13.8227L33.3669 11.2618ZM37.3188 9.75328L32.2059 11.0911L32.9653 13.9934L38.0782 12.6556L37.3188 9.75328ZM42.5784 14.9404C41.5422 13.1334 40.2359 11.502 38.7147 10.101L36.6824 12.3078C37.9798 13.5026 39.0933 14.8935 39.9759 16.4327L42.5784 14.9404ZM40.1649 21.0676L42.6074 16.3796L39.9469 14.9934L37.5044 19.6814L40.1649 21.0676ZM40.9571 22.9758C40.8238 21.915 40.5871 20.8859 40.2573 19.8991L37.412 20.85C37.6798 21.6512 37.8721 22.4872 37.9806 23.3499L40.9571 22.9758ZM44.6017 25.1255L40.3667 21.9612L38.571 24.3645L42.8061 27.5287L44.6017 25.1255ZM43.8264 32.4724C44.5776 30.5812 45.0521 28.5506 45.2003 26.4317L42.2076 26.2225C42.0813 28.0286 41.6772 29.7565 41.0383 31.3649L43.8264 32.4724ZM37.5266 34.4051L42.7199 33.3908L42.1448 30.4465L36.9516 31.4607L37.5266 34.4051ZM36.533 36.2101C37.2644 35.4578 37.9229 34.634 38.4971 33.75L35.9812 32.1159C35.5139 32.8353 34.9778 33.5061 34.382 34.1189L36.533 36.2101ZM37.1235 40.4045L36.9568 35.1172L33.9583 35.2118L34.125 40.499L37.1235 40.4045ZM30.8958 44.3779C32.9066 43.7669 34.7842 42.8519 36.4752 41.687L34.7733 39.2165C33.3323 40.2091 31.7339 40.9878 30.0236 41.5075L30.8958 44.3779ZM25.4563 40.657L29.488 44.0854L31.4314 41.8001L27.3998 38.3716L25.4563 40.657ZM25.0001 41.0833C25.5304 41.0833 26.0552 41.0576 26.5732 41.0073L26.283 38.0214C25.8613 38.0623 25.4334 38.0833 25.0001 38.0833V41.0833ZM23.4271 41.0073C23.945 41.0576 24.4698 41.0833 25.0001 41.0833V38.0833C24.5669 38.0833 24.1389 38.0623 23.7173 38.0213L23.4271 41.0073ZM20.5123 44.0854L24.5439 40.657L22.6004 38.3716L18.5688 41.8L20.5123 44.0854ZM13.5251 41.687C15.216 42.8518 17.0936 43.7669 19.1044 44.3779L19.9767 41.5075C18.2664 40.9878 16.6679 40.2091 15.227 39.2165L13.5251 41.687ZM13.0435 35.1172L12.8768 40.4044L15.8753 40.499L16.042 35.2118L13.0435 35.1172ZM11.5032 33.75C12.0774 34.634 12.7359 35.4578 13.4672 36.2101L15.6183 34.1189C15.0225 33.5061 14.4863 32.8352 14.0191 32.1159L11.5032 33.75ZM7.2804 33.3908L12.4736 34.4051L13.0487 31.4607L7.85546 30.4465L7.2804 33.3908ZM4.80004 26.4317C4.9482 28.5506 5.42265 30.5812 6.17389 32.4724L8.96197 31.3649C8.32305 29.7565 7.91902 28.0285 7.79273 26.2224L4.80004 26.4317ZM9.6336 21.9612L5.39858 25.1254L7.1942 27.5287L11.4292 24.3645L9.6336 21.9612ZM9.74294 19.8991C9.41316 20.8859 9.17645 21.915 9.04312 22.9757L12.0197 23.3499C12.1281 22.4872 12.3205 21.6512 12.5883 20.85L9.74294 19.8991ZM7.39283 16.3797L9.83533 21.0676L12.4959 19.6814L10.0534 14.9935L7.39283 16.3797ZM11.2856 10.1011C9.76439 11.502 8.45803 13.1334 7.42185 14.9404L10.0243 16.4327C10.907 14.8935 12.0205 13.5027 13.3179 12.3078L11.2856 10.1011ZM29.7501 25C29.7501 27.6234 27.6235 29.75 25.0001 29.75V32.75C29.2803 32.75 32.7501 29.2802 32.7501 25H29.7501ZM25.0001 20.25C27.6235 20.25 29.7501 22.3766 29.7501 25H32.7501C32.7501 20.7198 29.2803 17.25 25.0001 17.25V20.25ZM20.2501 25C20.2501 22.3766 22.3768 20.25 25.0001 20.25V17.25C20.7199 17.25 17.2501 20.7198 17.2501 25H20.2501ZM25.0001 29.75C22.3768 29.75 20.2501 27.6234 20.2501 25H17.2501C17.2501 29.2802 20.7199 32.75 25.0001 32.75V29.75Z" fill="#0400D5"/>
</svg>
