<svg width="50" height="50" viewBox="0 0 50 50" fill="none" xmlns="http://www.w3.org/2000/svg">
<rect width="50" height="50" fill="white"/>
<path d="M20.7184 20.4375L19.6577 19.3768L19.6577 19.3768L20.7184 20.4375ZM18.9183 9.93571L17.8576 8.87505C17.5133 9.21935 17.3576 9.70936 17.4399 10.1893C17.5222 10.6692 17.8323 11.0793 18.2717 11.2892L18.9183 9.93571ZM25.3315 3.5225L26.3922 2.46184C26.1109 2.18054 25.7293 2.0225 25.3315 2.0225C24.9337 2.0225 24.5521 2.18054 24.2708 2.46184L25.3315 3.5225ZM32.6579 10.8489L31.5972 11.9095C32.0156 12.3279 32.6408 12.4612 33.1934 12.25C33.7461 12.0388 34.1229 11.5224 34.1556 10.9316L32.6579 10.8489ZM39.5343 17.7253L39.4515 16.2275C38.8607 16.2602 38.3444 16.637 38.1331 17.1897C37.9219 17.7424 38.0552 18.3676 38.4736 18.7859L39.5343 17.7253ZM46.8602 25.0512L47.9209 26.1119C48.5067 25.5261 48.5067 24.5764 47.9209 23.9906L46.8602 25.0512ZM40.6136 31.2979L39.2283 31.8733C39.4204 32.3357 39.8305 32.6718 40.3217 32.7692C40.8128 32.8667 41.3202 32.7126 41.6742 32.3586L40.6136 31.2979ZM32.0821 39.8293L33.1428 40.89C33.4968 40.536 33.6509 40.0286 33.5534 39.5375C33.456 39.0463 33.1199 38.6362 32.6575 38.4441L32.0821 39.8293ZM25.3315 46.58L24.2708 47.6406C24.8566 48.2264 25.8064 48.2264 26.3922 47.6406L25.3315 46.58ZM17.7543 39.0028L18.815 37.9421C18.3804 37.5075 17.7246 37.382 17.1602 37.6254C16.5959 37.8688 16.2371 38.4319 16.2549 39.0463L17.7543 39.0028ZM6.61958 43.8066L7.68024 42.7459L7.68024 42.7459L6.61958 43.8066ZM11.4234 32.6719L11.3799 34.1712C11.9942 34.1891 12.5573 33.8303 12.8008 33.2659C13.0442 32.7016 12.9187 32.0458 12.4841 31.6112L11.4234 32.6719ZM3.80277 25.0512L2.74211 23.9906C2.46081 24.2719 2.30277 24.6534 2.30277 25.0512C2.30277 25.4491 2.46081 25.8306 2.74211 26.1119L3.80277 25.0512ZM10.2166 18.6374L11.5701 17.9908C11.3602 17.5514 10.9501 17.2413 10.4702 17.159C9.99025 17.0767 9.50025 17.2324 9.15594 17.5767L10.2166 18.6374ZM11.4918 20.4375L10.4311 21.4981L10.4311 21.4981L11.4918 20.4375ZM19.6577 12.2715C21.6198 14.2336 21.6198 17.4147 19.6577 19.3768L21.779 21.4981C24.9127 18.3645 24.9127 13.2839 21.779 10.1502L19.6577 12.2715ZM18.2717 11.2892C18.7711 11.5278 19.2406 11.8545 19.6577 12.2715L21.779 10.1502C21.1178 9.48902 20.3673 8.96558 19.5649 8.58224L18.2717 11.2892ZM24.2708 2.46184L17.8576 8.87505L19.979 10.9964L26.3922 4.58316L24.2708 2.46184ZM33.7185 9.7882L26.3922 2.46184L24.2708 4.58316L31.5972 11.9095L33.7185 9.7882ZM33.4981 5.5371C32.0453 6.9899 31.2652 8.86478 31.1602 10.7661L34.1556 10.9316C34.2215 9.73898 34.7087 8.56917 35.6194 7.65842L33.4981 5.5371ZM44.846 5.5371C41.7124 2.40346 36.6317 2.40346 33.4981 5.5371L35.6194 7.65842C37.5815 5.69635 40.7626 5.69635 42.7247 7.65842L44.846 5.5371ZM44.846 16.885C47.9797 13.7514 47.9797 8.67074 44.846 5.5371L42.7247 7.65842C44.6868 9.62049 44.6868 12.8016 42.7247 14.7637L44.846 16.885ZM39.617 19.223C41.5183 19.1179 43.3932 18.3378 44.846 16.885L42.7247 14.7637C41.814 15.6744 40.6441 16.1616 39.4515 16.2275L39.617 19.223ZM47.9209 23.9906L40.5949 16.6646L38.4736 18.7859L45.7996 26.1119L47.9209 23.9906ZM41.6742 32.3586L47.9209 26.1119L45.7996 23.9906L39.5529 30.2372L41.6742 32.3586ZM38.1406 30.2511C38.6225 30.733 38.984 31.2853 39.2283 31.8733L41.9988 30.7225C41.6064 29.7779 41.0264 28.8943 40.2619 28.1297L38.1406 30.2511ZM31.0353 30.2511C32.9973 28.289 36.1785 28.289 38.1406 30.2511L40.2619 28.1297C37.1282 24.9961 32.0476 24.9961 28.914 28.1297L31.0353 30.2511ZM31.0353 37.3563C29.0732 35.3943 29.0732 32.2131 31.0353 30.2511L28.914 28.1297C25.7803 31.2634 25.7803 36.344 28.914 39.4777L31.0353 37.3563ZM32.6575 38.4441C32.0695 38.1998 31.5172 37.8382 31.0353 37.3563L28.914 39.4777C29.6785 40.2422 30.5621 40.8222 31.5067 41.2146L32.6575 38.4441ZM26.3922 47.6406L33.1428 40.89L31.0215 38.7687L24.2708 45.5193L26.3922 47.6406ZM16.6936 40.0634L24.2708 47.6406L26.3922 45.5193L18.815 37.9421L16.6936 40.0634ZM16.9068 44.8673C18.5332 43.2409 19.3155 41.0874 19.2537 38.9592L16.2549 39.0463C16.2938 40.3834 15.804 41.7275 14.7855 42.7459L16.9068 44.8673ZM5.55892 44.8673C8.69256 48.0009 13.7732 48.0009 16.9068 44.8673L14.7855 42.7459C12.8235 44.708 9.64231 44.708 7.68024 42.7459L5.55892 44.8673ZM5.55892 33.5193C2.42528 36.653 2.42528 41.7336 5.55892 44.8673L7.68024 42.7459C5.71817 40.7839 5.71817 37.6027 7.68024 35.6407L5.55892 33.5193ZM11.4669 31.1725C9.3388 31.1107 7.18526 31.893 5.55892 33.5193L7.68024 35.6407C8.69868 34.6222 10.0428 34.1324 11.3799 34.1712L11.4669 31.1725ZM2.74211 26.1119L10.3628 33.7325L12.4841 31.6112L4.86343 23.9906L2.74211 26.1119ZM9.15594 17.5767L2.74211 23.9906L4.86343 26.1119L11.2773 19.6981L9.15594 17.5767ZM12.5524 19.3768C12.1353 18.9597 11.8087 18.4902 11.5701 17.9908L8.86313 19.284C9.24648 20.0864 9.76991 20.8369 10.4311 21.4981L12.5524 19.3768ZM19.6577 19.3768C17.6956 21.3389 14.5145 21.3389 12.5524 19.3768L10.4311 21.4981C13.5648 24.6318 18.6454 24.6318 21.779 21.4981L19.6577 19.3768Z" fill="#0400D5"/>
</svg>
