<svg width="52" height="52" viewBox="0 0 52 52" fill="none" xmlns="http://www.w3.org/2000/svg">
<rect width="50" height="50" fill="white"/>
<path d="M25 27.0833L14.1747 20.8332L14.1747 8.33325L25 2.08325L35.8253 8.33325L35.8253 20.8333L25 27.0833Z" stroke="#0400D5" stroke-width="3" stroke-linecap="round" stroke-linejoin="round"/>
<path d="M24.9998 26.0415L24.9998 15.6248L35.4165 8.33317" stroke="#0400D5" stroke-width="3" stroke-linecap="round" stroke-linejoin="round"/>
<path d="M25 15.625L14.5833 9.375" stroke="#0400D5" stroke-width="3" stroke-linecap="round" stroke-linejoin="round"/>
<path d="M39.5835 50L28.7582 43.75L28.7582 31.25L39.5835 25L50.4088 31.25L50.4088 43.75L39.5835 50Z" stroke="#0400D5" stroke-width="3" stroke-linecap="round" stroke-linejoin="round"/>
<path d="M39.5833 48.9583L39.5833 38.5416L50 31.2499" stroke="#0400D5" stroke-width="3" stroke-linecap="round" stroke-linejoin="round"/>
<path d="M39.5835 38.5417L29.1668 32.2917" stroke="#0400D5" stroke-width="3" stroke-linecap="round" stroke-linejoin="round"/>
<path d="M12.5 50L1.67468 43.75L1.67468 31.25L12.5 25L23.3253 31.25L23.3253 43.75L12.5 50Z" stroke="#0400D5" stroke-width="3" stroke-linecap="round" stroke-linejoin="round"/>
<path d="M12.4998 48.9583L12.4998 38.5416L22.9165 31.2499" stroke="#0400D5" stroke-width="3" stroke-linecap="round" stroke-linejoin="round"/>
<path d="M12.5 38.5417L2.08333 32.2917" stroke="#0400D5" stroke-width="3" stroke-linecap="round" stroke-linejoin="round"/>
</svg>
