<svg width="70" height="70" viewBox="0 0 70 70" fill="none" xmlns="http://www.w3.org/2000/svg">
<path fill-rule="evenodd" clip-rule="evenodd" d="M59.789 38.0256C59.7877 37.7252 59.626 37.4484 59.365 37.2996C59.3167 37.2527 59.2498 37.2303 59.183 37.2386L47.983 32.2756V17.2036C47.9603 17.0307 47.8987 16.8653 47.803 16.7196C47.7722 16.6888 47.7417 16.6736 47.7112 16.6583C47.6812 16.6433 47.6512 16.6283 47.621 16.5986L35.703 11.0906C35.4546 10.9698 35.1644 10.9698 34.916 11.0906L23.169 16.3566C23.1382 16.3873 23.1077 16.4026 23.0772 16.4178C23.0472 16.4328 23.0172 16.4478 22.987 16.4776C22.8656 16.6091 22.8003 16.7827 22.805 16.9616V31.9726L11.605 36.9356C11.2458 37.0633 11.0044 37.4014 11 37.7826V53.3996C11.0045 53.763 11.2161 54.0919 11.545 54.2466L23.288 59.5126C23.5364 59.6334 23.8266 59.6334 24.075 59.5126L35.454 54.4286L46.833 59.5126H46.894C47.1275 59.6035 47.3865 59.6035 47.62 59.5126L59.366 54.2496C59.7011 54.102 59.9156 53.7686 59.911 53.4026V38.1496L59.789 38.0256ZM47.078 42.3256L37.696 38.1496L47.078 33.9126L56.46 38.0886L47.078 42.3256ZM36.0241 26.0037C35.8418 26.1859 35.5937 26.2868 35.336 26.2836L35.337 26.2826C35.0793 26.2858 34.8312 26.1849 34.6489 26.0027C34.4667 25.8204 34.3657 25.5723 34.369 25.3146V23.0746L24.503 18.7166V32.2146L34.366 36.6336V33.9706C34.366 33.4357 34.7996 33.0021 35.3345 33.0021C35.8694 33.0021 36.303 33.4357 36.303 33.9706V36.6336L46.17 32.2146V18.6566L36.304 23.0756V25.3156C36.3073 25.5733 36.2063 25.8214 36.0241 26.0037ZM35.336 13.0276L44.718 17.2036L35.336 21.3796L25.893 17.2036L35.336 13.0276ZM32.975 38.0856L23.593 33.9096L14.211 38.0866L23.593 42.2626L32.975 38.0856ZM12.758 39.5996L22.624 44.0186V57.5766L12.758 53.1576V39.5996ZM34.369 39.5986L24.503 44.0176V57.5766L34.369 53.1576V39.5986ZM36.303 39.5996L46.169 44.0186V57.5766L36.303 53.1576V39.5996ZM48.047 43.9576V57.5156L57.913 53.0976V39.5386L48.047 43.9576Z" fill="#0400D5"/>
<path d="M35.3359 30.5806C34.9156 30.5953 34.54 30.3199 34.4279 29.9146C34.3072 29.5425 34.4262 29.1345 34.7279 28.8856C35.0466 28.6052 35.5077 28.5567 35.8779 28.7646C36.2284 28.9785 36.3999 29.3948 36.3019 29.7936C36.1958 30.2447 35.7992 30.5679 35.3359 30.5806Z" fill="#0400D5"/>
</svg>
