<svg width="255" height="52" viewBox="0 0 255 52" fill="none" xmlns="http://www.w3.org/2000/svg">
<path d="M69.5126 38H63.0326V27.74H54.0326V38H47.5526V12.8H54.0326V22.7H63.0326V12.8H69.5126V38ZM92.9295 32.6C92.9295 34.4 92.4135 35.816 91.3815 36.848C90.3735 37.856 88.9695 38.36 87.1695 38.36H78.8895C77.0895 38.36 75.6735 37.856 74.6415 36.848C73.6335 35.816 73.1295 34.4 73.1295 32.6V24.32C73.1295 22.52 73.6335 21.116 74.6415 20.108C75.6735 19.076 77.0895 18.56 78.8895 18.56H87.1695C88.9695 18.56 90.3735 19.076 91.3815 20.108C92.4135 21.116 92.9295 22.52 92.9295 24.32V32.6ZM86.6295 24.86C86.6295 23.9 86.1495 23.42 85.1895 23.42H80.8695C79.9095 23.42 79.4295 23.9 79.4295 24.86V32.06C79.4295 33.02 79.9095 33.5 80.8695 33.5H85.1895C86.1495 33.5 86.6295 33.02 86.6295 32.06V24.86ZM95.4452 32.96C100.317 33.32 104.157 33.5 106.965 33.5C107.325 33.5 107.625 33.38 107.865 33.14C108.105 32.9 108.225 32.6 108.225 32.24V30.98H100.485C98.8532 30.98 97.5452 30.488 96.5612 29.504C95.5772 28.52 95.0852 27.212 95.0852 25.58V24.32C95.0852 22.688 95.5772 21.38 96.5612 20.396C97.5452 19.412 98.8532 18.92 100.485 18.92H112.725V23.6H102.645C102.285 23.6 101.985 23.72 101.745 23.96C101.505 24.2 101.385 24.5 101.385 24.86C101.385 25.22 101.505 25.52 101.745 25.76C101.985 26 102.285 26.12 102.645 26.12H109.125C110.757 26.12 112.065 26.612 113.049 27.596C114.033 28.58 114.525 29.888 114.525 31.52V32.96C114.525 34.592 114.033 35.9 113.049 36.884C112.065 37.868 110.757 38.36 109.125 38.36C104.877 38.36 100.317 38.12 95.4452 37.64V32.96ZM130.368 38C128.04 38.24 125.76 38.36 123.528 38.36C121.896 38.36 120.588 37.868 119.604 36.884C118.62 35.9 118.128 34.592 118.128 32.96V23.78H115.968V18.92H118.128L118.848 14.6H124.428V18.92H128.928V23.78H124.428V32.06C124.428 32.42 124.548 32.72 124.788 32.96C125.028 33.2 125.328 33.32 125.688 33.32H130.368V38ZM140.12 19.64V38H133.82V24.5H131.12V19.64H140.12ZM133.82 12.44H140.12V17.48H133.82V12.44ZM154.352 23.78C153.08 23.78 151.64 24.02 150.032 24.5V38H143.732V18.92H149.312L149.672 20.72C150.8 19.976 151.952 19.436 153.128 19.1C154.328 18.74 155.336 18.56 156.152 18.56H157.772C159.404 18.56 160.712 19.052 161.696 20.036C162.68 21.02 163.172 22.328 163.172 23.96V38H156.872V25.04C156.872 24.68 156.752 24.38 156.512 24.14C156.272 23.9 155.972 23.78 155.612 23.78H154.352ZM178.827 36.56C176.499 37.04 174.459 37.28 172.707 37.28H171.447C169.815 37.28 168.507 36.788 167.523 35.804C166.539 34.82 166.047 33.512 166.047 31.88V24.68C166.047 22.88 166.551 21.476 167.559 20.468C168.591 19.436 170.007 18.92 171.807 18.92H185.127V39.08C185.127 40.712 184.635 42.02 183.651 43.004C182.667 43.988 181.359 44.48 179.727 44.48C175.959 44.48 171.759 44.24 167.127 43.76V39.08C171.711 39.44 175.191 39.62 177.567 39.62C177.927 39.62 178.227 39.5 178.467 39.26C178.707 39.02 178.827 38.72 178.827 38.36V36.56ZM174.507 32.42C176.019 32.42 177.459 32.3 178.827 32.06V23.78H173.787C172.827 23.78 172.347 24.26 172.347 25.22V31.16C172.347 31.52 172.467 31.82 172.707 32.06C172.947 32.3 173.247 32.42 173.607 32.42H174.507ZM208.172 32.6C208.172 34.4 207.656 35.816 206.624 36.848C205.616 37.856 204.212 38.36 202.412 38.36H194.132C192.332 38.36 190.916 37.856 189.884 36.848C188.876 35.816 188.372 34.4 188.372 32.6V24.32C188.372 22.52 188.876 21.116 189.884 20.108C190.916 19.076 192.332 18.56 194.132 18.56H202.412C204.212 18.56 205.616 19.076 206.624 20.108C207.656 21.116 208.172 22.52 208.172 24.32V32.6ZM201.872 24.86C201.872 23.9 201.392 23.42 200.432 23.42H196.112C195.152 23.42 194.672 23.9 194.672 24.86V32.06C194.672 33.02 195.152 33.5 196.112 33.5H200.432C201.392 33.5 201.872 33.02 201.872 32.06V24.86Z" fill="white"/>
<rect x="39" y="5" width="12" height="12" fill="#0400D5"/>
</svg>
